<svg xmlns="http://www.w3.org/2000/svg" width="512" height="512"><path fill="#fff" fill-rule="evenodd" d="M245 22q-12 4-14 15c-2 6 0 18 3 22q2 2 2 9c0 11-1 12-8 16l-10 6-6 3q-11 1-18 14-2 3-3 12 0 9-2 14l-2 10q1 8-8 18c-6 8-9 13-11 23-2 9-8 23-12 24q-10 4-15 11l-8 7-2 2-2 5c-4 6-5 16-5 40q1 28 5 49c9 56 23 94 44 122 32 41 87 58 128 39q61-28 72-159c3-48-1-103-8-103l-6-6q-5-6-10-8c-5-1-6-2-11-9l-8-13c-3-10-6-14-12-20-6-7-6-7-6-14l-3-13c-3-6-3-7-2-11q3-16-4-26-6-6-14-7l-6-3-9-6q-6-3-3-7c3-4 5-17 5-24 1-10-2-21-4-25q-5-7-17-8zm2 3q-8 3-12 9c-2 6-3 14 0 14v4q-2 2 3 6l7 10c3 4 4 5 11 7 11 5 13 3 17-12V44l-1-7-5-9c-4-4-4-4-11-4zm-9 42 1 12v11q-1 2-1-3l-1-5-1 1-7 4q-13 6-6 8 4 1-3 2h-6c-1-2-8 1-12 4q-10 10-7 24l2 6 2-1 2-1-2 3-11 23-6 8c-7 9-8 12-11 22q-1 8-6 16c-4 8-5 9-10 11-7 2-17 12-15 15l5-3q5-4 8-4l6-2q5-2 3 1l2 1h4q1 1 2-3c0-3 8-14 16-24q11-12 14-24l1-4-6 1-5 2v-3q0-2 1-1 2 2 8-1c5-5 13-24 15-35q2-3-1-3-2-1 1-1 2-1 4 3c3 4 12 12 15 13q5 1 2 2c-3 0-11-5-14-8l-3-3-3 8-2 8 6 10 5 10 1 11c1 11 1 12 7 15 5 2 25 5 34 5l13-1c8-2 8-3 8-19v-19q-3 2 0-3l1-5v-4q3-4-3-4c-8 0-18-5-18-8l2 1c1 2 9 5 15 5q10-1 13-14c1-3-1-13-3-16v-1c2 0 6 8 7 13q1 9 4-1 1-15-10-23l-14-1-13 2q-3 0-1-1l6-2q12 0 9-3l-12-7-1 3v3l-1-1q-1-3-3 3-3 8 0-6l2-8-3 4q-4 6-3 2l2-4q0-2-4-3-11-2-16-11l-4-5zm7 16 6 11 2 4-6-1h-8l-4 1h5l15 3q3 0-1-5zm38 18 3 1-1-1-2-2zm-63 10-6 10 6-8 5-8 2-4zm41-4 1 8q3 13 1 19l-4 5q-6 2-2 2l6-4q5-4 4-10l-4-18zm39 25-3 6-3 7c-1 5 0 6 2 12l6 8q7 3 1 2c-4-1-9-7-9-10l-1-2q-3 1 1 10l2 5 1 3q1 3 2 1t2 2c1 5 2 7 13 18 14 15 18 20 19 23q0 3 2 3l4-2 2-1h2l6 1q4 0 7 2 4 5 5 2l-3-5q-6-7-14-8c-3 0-14-15-18-25-3-8-4-10-11-19q-4-4-5-2l-1 4h-1v-18c-1-6-6-20-7-20zm-108 2q-3 8-1 8l1-2 2-3v-4q-1-2-2 1m45 1v1q3 1 4-1zm52 0 1 2 1-1q0-3-2-1m-39 6q-1 1 1 1l3-1-2-1zm-3 1v1l2-1-1-1zm-23 4 7 2-1-2zm44 5q0 7-7 8-6 1-1 1l5 1q3-1 4-10-1-4-1-1m-36 0c0 2 5 8 7 9l3 1-5-6zm-23 10-5 12c-1 6-7 16-12 22q-18 19-18 25l-1 5-1 3-3 3-3 2-4 3c-5 2-18 2-19 1l-6-1q-4 0-6 5c-2 6-2 31-1 47 7 87 32 149 71 178 10 7 28 16 39 19 12 3 34 4 46 1q70-17 83-143a395 395 0 0 0 1-103l-1-9h-3l-5 2c-3 2-16 2-20-1l-4-2q-3-2-4-8c-2-6-3-7-15-20a87 87 0 0 1-24-31q-3-10-2 3v14l1 9c0 4 1 1 1 2l2 6c2 4 5 18 5 25l3 11 5 31-2 3q-3 1-3 7c-2 12-2 14-5 21l-2 11-1 10-2 14c0 12-2 20-10 39l-8 24c-1 7-1 7 1 9s2 3 1 11c0 7 0 9 3 17l3 11q-2 14-17 9-3-3-5 0-2 2-8 2-11 0-19-8-5-6-5-14l-2-6q-5-7-5-13l5-12 4-9v-8l-4-21c-3-12-4-15-4-23 1-9 1-10 5-18s4-9 4-16l-3-14-4-13q-2-8-6-9t-3-7q1-8-1-34a89 89 0 0 1 7-42l1-11c0-10-1-13-7-23l-4-6zm16-7 2 1h1q-2-3-3-1m18 0 1 2q2 3 2-1-2-3-3-1m41 3q0 4-7 3-6 0-2 1 10 3 7 8 1 4-2 7l-3 2h2q3 0 4-3l1-8v-6zq-1-2-1 1m-56 1q1 0 0 0v-1zm1 2 4 4q0-3-3-5zm38 11q-2 7-6 5v1l3 1q5-3 4-8-1-3-1 1m-21 1 3 4v-2l-2-3-1-1zm0 9 3 9 1-1-2-6c0-3-3-10-4-10zm-56-5c-2 1-6 7-5 7l5-4q6-8 0-3m122 0 2 4q2 3 3 2 1-2-3-4c-4-2-2-3-2-2m-39 2a1 1 0 0 0 2 0l-1-1zm-83 7q-9 10 0 3 7-6 6-9zm117-3q3 5 11 9l5 2-4-3-8-7q-6-6-4-1m-41 0q-1 1 1 3 1 3 2 0v-3zm15 3-1 4h1zq-1-3-1 0m-1 7q1 0 0 0v-1zm-55 6v3q-3 1-5 22c-1 13-1 15 1 24l1 11c-2 3-2 15-1 15l1-4q1-8 2-2l1 4 6-2q4-2 19-2h13v-5l-1-11q0-7-2-4-4 1 0-2v-3l-7-4-4-3c0-1 6 1 10 4q5 3 7 2v17q2 14 3 11a71 71 0 0 1 36 2l-1-8-2-11-1-8-1-6q-1-4-3-2-2 3 0-5v-6l-2-9c0-4-2-11-4-11l-6 1c-10 3-39 2-42-1q-2-1 1-1c3 2 30 2 38 1q11-1 9-4 0-3-5 0c-6 2-20 2-31 1l-28-6q-3-2-2 2m107 5 5 6 2 2-1-2zl-4-4zm-98 0 7 1-5-1zm2 8 4 3 23 14c3 0-7-8-15-12-4-3-12-5-12-5m44 4-2 3-2 4q-4 7 0 3c2-1 7-11 7-12zm-12 7 1 6c1-1 0-10-1-11zm-27 0 14 10q10 6 5 1l-2-2-6-4-10-6zm96 1v4q2 2 2-1 1-4-1-5zm-171 0q-3-1-1 3 1 4 3 2c3-1 1-6-2-5m175 0-1 3q0 4 4 0t-1-4zm12 4q0 6 2 4v-4q-2-7-2 0m-192-2a1 1 0 0 0 2 0l-1-1zm-11 1v2l2-1q1-3-2-1m3 4v5q2 0 3-7 0-7-3 2m4-2v6q1 2 2-1v-8zm187 0q-2 4 1 3l2-3q0-6-3 0m13 0q0 3 2 3v-5q-3-2-2 2m9-2-3 1h-1q1 3 4 1zm-204 1v4q0 4 2-1l-1-3zm132 0 1-2zm-158 4q0 4 5 2 9-3 0-4-6 0-5 2m132 2-1 5c1 1 2-4 2-7q0-3-1 2m-121-1-1 3q3 0 4-4-1-3-3 1m119 8q1 0 0 0v-1zm6 4 8 1 4 1-3-1-8-2q-4 0-1 1m-4 6 2 3c3 2 10 6 9 4zm-35 22c-7 2-7 1-1 21q4 12 4 20l1 15-2-3c-1 0-6 11-7 16-2 7-1 11 3 31 4 16 5 23 4 32v7q2 3 4 1l6-3h4l-1-5c-1-7 0-56 1-57l3-7 3-9h-3q-5 0-7-6l1 1 5 3c4 0 9-10 7-15l1-2q1 1 2-4c2-5 2-18 0-30l-1-7-10-1zm38 1-2 1-1 9q0 9 1 7 2-3-1 8l5 39-2-2-1-3-4 8q-6 16-3 25 3 5 1 15l-1 30 5-1c4 0 4 0 5-9l8-24c7-17 9-25 9-34v-5l-2 3q-4 7-1-2l1-5-5-2h3q4 1 6-8 2-3-1-2l1-1q3-3 2-8v-6c2 0 6-18 6-27l-1-5-4-1zm-6 7 1 4 1-4-1-5zm-17 23-4 1q-4 0-2 2t4 0l3-4zm40 0v3q3-4 1-5zm-4 7q-4 4-7 3h-1q3 4 8-1l3-3zm-21 4-1 7-3 10c-3 5-3 6-2 12 1 7 0 12-4 24q-3 9-2 19v14l1 3 3-2 4-7 1-39c0-9 0-10 4-19l4-9-1-8-2-8zm-19 3 1 2h1q3 0 1-2-3-4-3 0m37 7q0 4 1 2v-6zm-8 15q1 0 0 0v-1zm-21 10-1 15 3-16-1-3zm-19 7 1 3v-6zm40 1-1 5 3-11zm-20 50v3q3 3 3-2-1-3-3-1m-24 4-1 5q0 3-1 1t-1 2l3 7 4 6 1 1v-2l1 1 3 8q6 9 11 11l1 1-8-2c-3-2-7-9-7-11l-1-3c-1 0 0 6 2 10 3 7 16 14 19 10l3-1q4 1 3-3l-1-2v-2l-1-6q-1-6-6-4-5 0-2-1 6-3 0-4-4-1 2-2 2-1-2-2l-3-2h2q5-2 0-5l-3-1 3-1c2 0 3-5 2-7h-6q-5-1-7 5l-3-1q-4-2-5-5l-1-3zm38 2-2 2q1 3-5 0l-4-2v6c0 6 4 19 8 24q2 5 6 6 3 2 1 2l-4-1q-5-1 1 3c3 3 12 2 12-1 1-6-2-15-4-15h-4l-3-1h3q6-2 0-4h-2l2-1q3-1 1-2-3-2 0-3 2-1-1-3-4-3 0-3 3 0 3-2v-4q-3-2-8-1m-37 13q1 0 0 0v-1z"/></svg>