<svg xmlns="http://www.w3.org/2000/svg" width="512" height="512"><path fill="#fff" fill-rule="evenodd" d="M258 60q-10 4-15 12-4 9-1 26v17c-2 8-3 9-13 10l-13 4-12 3q-20 1-27 20-1 6-5 10-13 14-15 26l-3 18a71 71 0 0 0 1 44l7 27q3 6-7-4-11-12-11-5c0 2 15 17 18 16q3 0-4 5l-4 3-7-7q-9-11-11-8-6 1 7 12c8 7 9 8 10 13q0 4 4 8l19 14 6 2c3-1 11 7 12 12l4 39-7-3q-12-7-19-2c-5 5-6 9-3 24l4 23c2 12 4 16 11 21q15 11 24 4c3-3 4-3 4-8q-1-8 3-3l8 4q17 9 26-6l3-5 5 3c17 9 24 3 34-30 5-17 8-26 9-37l2-10q3-11 2-35c-2-18-2-32 0-33q0-2 6 4 6 5 5 8c0 5 8 12 16 12l4 2q9 4 15-6 2-5-3-10-3-3-2-8c0-7 0-8-7-13l-6-4v-8l3-20q5-24 0-37-3-7-4-18l-2-15-2-11q1-14-6-20-8-9-19-8-4 2-9-2l-7-3-2-1c6-11 7-16 7-35-1-17-1-19-7-24q-11-10-26-7m-1 6q-13 5-12 21l1 13q3 7 1 13-2 17-17 17l-14 4q-6 3-12 3l-9 1q-12 6-15 23 0 9-4 5-3 0-11 12l-4 13-3 14-1 6c1 2 6-6 8-11l2-4-1-2q-3 0-1-3l1-5q3-4 4 0l1 1c4 0-3 21-8 26-3 2-2 7 3 23l4 16-1 1c-2 0-9-18-12-28l-2-7v5c-1 6 0 11 5 28l7 24 2 7q1-4 3 0c0 3 0 3-9 10q-7 5-5 8l1-1q3-3 3 5l2 5v-2q0-4 2-3l3 5 1 3q1-4 3 1l1 2q1 1 1-2-2-5 5-11 5-6 8-3l2 1q1-3-5-10c-3-4-8-17-10-26-1-5-1-7 1-17s2-12 1-19c-2-15-2-15 4-20q14-10 20-28 1-3-4-2l-9 4q-6 6-8 0-3-10 2-15l5-4q3 1-1 6l-2 6v4l3-2q4-3 10-4 9-1 17-11l7-8 3-4-2-2-3-4h-10l-2-1q0-2 5-5l6-2 5 6c6 5 10 6 21 8h8l3 1-3-6q-4-10-1-12l5 8 3 10 4 5q4 3 4 6 0 5-6-3l-5-4-12-1c-15-1-16-1-23 8l-8 8-3 3 3 6q7 13 19 19l14 3c18 1 22-4 22-22q0-12 2-10 2 0 2 7 2 21-9 28l-15 1c-11 0-12 0-18-3q-13-7-21-21l-3-5-2 7q-3 8-1 11 3 11 11 24l6 9h2q2-2 3 1l5 3q6 3 3 5-2 1-9-4-3-4-3-2l2 15v13l4 3c2 2 14 6 17 6l-2-20c-1-12-1-14 1-15q3 0 3 5l1 10 2 14v7h28l5-1 1-6 2-14q0-14 3-10c1 0 1 21-1 25l-1 3 3-1c4-2 4-7 4-23-1-11-1-12 2-23l5-15v-4l-5 2c-6 3-16 3-20 0q-5-4-2-5l5 2 9 1q15-2 20-20v-13q-3-7-1-7 3-2 5 6 0 3 2 3l1-5v-4q4 1 4 6 0 3 2 3 4 0 0 4h-5l-3-2v4l-2 9c-1 5-1 6 1 12q2 7 5 9l3 3 3-2q9-8 2 3-5 7-8 2l-3-2v3q-3 9 2 28c4 16 4 33 1 35q-5 4 0 11l3 7q0 4 3 7l4 3-1-5q-1-6 2-7l2 4q0 3 5 7 6 6 8 2 6-2-4-10-5-4-7-3-4-1-1-3 4-4 8-2 3 3 2-1 1-4-3-6l-7-5q-4-2-3-9l4-31q4-15 0-26-5-14-5-24 1-6-2-11l-1-11q0-23-18-24h-3l2 2q3 3 2 4l-3 1-4 2q-6 6-14 7-7 1-9 4l-4 3q-3-1 2-7 4-4 10-5 5-1 9-4 5-3 6-2l2-1c0-2-15-10-18-10l-2 5q-2 11-5 12t0-8c2-9 2-9-3-8q-8 2-17-9-6-6-7-10 0-5 2-4l3 5c3 8 14 15 22 12q10-3 11-31c0-14-1-19-5-24-5-7-17-9-25-5m-19 70-3 5v4c2 3 8-4 7-9q-2-5-4 0m-12 15q1 0 0 0v-1zm79 44-1 9q0 7-4 15c-3 9-3 9-3 26l2 16 8 5 6 5 1-3c1-4-1-17-4-29-2-9-2-12-2-24l-1-18q-2-5-2-2m-109 5-14 13q-3 3-2 5c2 8 2 22 1 31-2 11-2 13 3 28l6 13q5 4 4 9-1 4 5 10l6 5v-30l4-7c6-11 8-19 8-32 0-12-1-16-7-25q-7-10-10-19l-2-5zm26 8q0 3 10 8c7 3 10-1 2-4l-7-4q-4-4-5 0m35 3q-8 4-5 6c1 2 12-3 12-6q1-3-7 0m18-1h-4q-3 0-2 7l-1 9c-1 4 0 11 2 12q2 0 2-3 1-4 6-2l6-1q4-4-3-3-8 2-8-8 0-6 2-7 2-2 7 1 7 6 6 1c0-4-11-9-13-6m-55 6 1 3c1 2 9 7 11 7q4-1-2-6l-6-4zm38 13-6 1v2c0 1 6 2 10 1l4-2q1-4-8-2m13 17-6 1q-7 2 0 5l4 2 3-3q6-7-1-5m-52 20-4 10c-4 7-5 9-5 26-1 14-1 18 1 21l2 15 2 12 6 2c7 3 27 4 33 2l4-2 3-16q2-16 1-17l-1-3 14-5v3l-5 3q-3 1-3 4-1 3 5-2 7-6 8-3 1 1-4 5-10 8-11 21l-1 10 6 1c6 1 18 0 24-3q6-2 5-9c1-6 1-23-1-38v-17q2-7-1-10l-3-6q1-5-3-2c-7 5-24 7-39 5-17-2-24-4-30-9l-2-3zm79 1q1 4 7 10l4 3v-3l1-2q-12-11-12-8m-61 9-6 9q-8 7-2 7l11-11q4-7 0-8zm38 21c-6 0-16 3-17 5q-3 3 8 1l16-5q0-3-7-1m-92 9c-4 5-3 7 6 16 11 9 11 11 13 34l6 50c1 11 2 14 8 19l10 8q15 6 20-7l3-9q5-9 7-37v-22c-10 4-29 3-39-1l-1 18c0 15 0 19 2 25 4 14 5 18 3 20q-3 5-5-5l-3-13c-2-5-2-10-3-27-1-25-3-45-5-51l-8-9-10-8-3-3zm107 51-15 1h-12l-1 13c-3 35-4 43-8 48q-2 2 3 4c11 7 15 6 21-3a221 221 0 0 0 18-62q1-4-5-1m-115 21q-4 3 0 19l3 18c2 13 3 17 10 21 6 4 15 5 16 2 0-1-1-17-3-21 0-2-8-7-11-7s-10-4-10-6l2-1v-1q-3-5 9 1l9 3-1-10-1-10-8-4c-10-6-12-7-15-4"/></svg>