<svg xmlns="http://www.w3.org/2000/svg" width="512" height="512"><path fill="#fff" fill-rule="evenodd" d="M248 15q-14 3-18 14l-1 12q-1 13 4 16l1 8c0 10 0 11-6 14l-10 6-7 4c-4 0-12 4-15 7q-10 8-9 22l-1 11q-4 6-6 15c0 7-1 8-8 16q-9 8-12 21l-6 15q-4 8-9 9-10 4-15 12l-3 4q-2 0-5 9-8 22 19 75 36 74 83 83 3 0 4 8c4 15 4 17 0 26-5 9-5 12-1 20l2 11q1 16 16 20 11 2 16-3l1-3 4 3c7 5 18 3 21-3 2-5 1-7-2-17-3-8-3-11-3-19q0-9-2-10-3-2 3-22 3-12 7-11c7-2 23-11 32-17 26-22 54-66 65-103q9-30 1-41l-2-5-2-2-7-7q-7-6-12-8-6-2-11-9t-8-14q-5-13-14-22c-6-4-6-5-6-11q-1-10-7-18-3-2-1-11c0-8 0-9-2-14q-6-13-20-16-5 0-8-3l-10-5-6-5 2-4q9-13 5-36-1-14-9-18-9-6-22-4m-1 3q-9 2-14 9c-2 4-3 17-1 16v-3q-1-10 6-16 7-7 19-6c7 0 8 1 11 3q6 5 8 12l1 3-4-12q-9-10-26-6m-1 4q-12 3-11 15l1 7q2 3-2 1-3 0-1 2l2 6 1 1c1-1 6 4 8 7q7 11 20 12 5 0 9-10c2-10 1-31-3-37-3-5-16-8-24-4m31 27 1 5V44zm-47-1v-2zm2 5 1 2zq-1-2 0 0m3 4a1 1 0 0 0 2 0l-1-1zm6 4q4 10 12 13 15 6 22-6 2-8-1 0t-11 7q-14-1-21-13l-3-4zm35 0v-2zm-37 15-1 13q-1 2-1-1l-1-5v-2l-4 2-9 6-5 3 4 1q8 2 0 3h-10c-1-2-8 1-12 4q-6 6-7 17 0 12 4 9l3 1h-2l-1 1q1 2-2 5c-6 8-12 23-10 28l-1 2-2-2q1-3-4 1-7 7-12 21c-3 10-10 23-13 24l-7 4q-6 2-9 6-4 6 1 2 3-3 7-3 6 0 8-2l3-2v2q-2 3 2 2 4 0 1-1-3 0-1-1l2-1 2-3 14-17 15-18q6-12-2-9-6 0-4-1l2-2q12 0 20-29l3-10-3-1q-4 0 4-2 3-2 6 3 5 10 14 13t0 4q-7 1-13-6-4-5-4-2l-1 6c-1 4-1 4 5 15l6 11 1 12q0 12 2 12c5 5 38 9 47 6l1-1 1-5 1-8q1-4 4-1l-2 12q-1 3 3 1 3-1 4-7c1-6 1-18-1-19l1-5 3-5-4 2q-4 0-2 5 0 7-3 11c-1 2-10 3-13 1-2-1 3-3 7-3q6 0 5-7v-4l-6-1-6-2c-2-1 4-3 9-3q4 2 5-2c3-5 7-3 4 2-2 4 2 0 6-4 3-5 3-6 4-11l1-3-5 3c-6 3-20 3-19-1h-1l-5-3-3-3-3 4c-5 4-15 6-19 4l-1-1-1-1 6-2q13-3 15-7 3-7 0-21-2-12 2-6t5 19v9q2 3 11 5c6 1 14 0 11-1q-4-2 0-5 5-1 3 3l2-1q3-2 5-9l2-6-3-4-3-6q-3-4 2-2c3 2 7 9 8 13q1 5-2 11l-3 9c0 10 6 22 12 25q8 4 7-5 0-10-7-24l-5-8h2q2 0 2-3c4-16-5-28-19-28q-4 0-2 2 3 2 1 2h-2l-1-1-1-1h-14q-12 1-12-2l2-9q4-12 1-5t-4 4l1-4q3-3-5-4l-12-7-5-6zm-4-4q1 0 0 0v-1zm9 5 3 5 2 4-3-3-3-3 2 4 4 6 2 3h-7q-12-1-13 2l5 1 12 3q15 3 2 0l-5-3 11 3c3 1-2-10-8-18zm-17 5q-6 4-2 2l6-4zm48 2a1 1 0 0 0 2 0l-1-1zm3 0c2 3 13 9 15 9q11 0 18 10l3 3-8-10q-6-4-13-4l-5-2c-3-3-11-7-10-6m-57 2q1 0 0 0v-1zm49 3-1 3-1-2q0-3-3 3-2 4 2 2l11-1h8l-2-2-13-7zm-53-1-6 3c-8 0-19 9-21 17q0 3 2-3c4-7 13-13 19-13l6-3q6-6 0-1m2 14c-4 5-13 17-12 18l4-2c3-2 15-18 14-19q-1-3-6 3m2 0q-6 7-4 7l8-10zm42-2q1 0 0 0v-1zm33 8 2 2q2 2 0 0zm19 7q1 14 1 3l-1-8zm-126 2 1 9v-6q0-15-1-3m24-5 1-2zm86 1q1 0 0 0v-1zm-88 3q1 0 0 0v-1zm103 10a1 1 0 0 0 0-2zm-126 4q-2 2 0 0l2-2zm3 1 1-2zm42 1v3l3 1 2-1v-3l-2-2zm82-2 2 2q2 2 0 0zm-129 3q1 0 0 0v-1zm-1 2q1 0 0 0v-1zm134 1q3 5 2 2zm-135 1a1 1 0 0 0 0-2zm39 1q1 0 0 0v-1zm-40 2q1 0 0 0v-1zm91 1h2zm47 0a1 1 0 0 0 0-2zm-101 1-1 1q-2 2 1 3l4 1q4 0 2 1t1 4q6 8 11 6l3-1-3-1c-3-1-10-9-9-10l-5-3zm23 0h3l-1-1zm37 0h2q1-1-1-1-3 0-1 1m10 2q-5 5-1 5 4-1 5-6 0-2-4 1m33 0a1 1 0 0 0 0-2zm-58 1-1 4c-2 7-2 7-8 7l-8 2q-2 1 1 2l9 1q10 1 9-9 0-9-2-7m23 3q1 0 0 0v-1zm-66 1h-1q-4-1 1 6 5 8 9 8 4 1-1-5l-5-7q-2-5-3-2m15 1c-1 3 4 7 6 4q1-2-3-5-2-2-3 1m87-1a1 1 0 0 0 0-2zm-26 2q1 0 0 0v-1zm1 2 2 3v-1q-3-5-2-2m-93 6-4 9q-2 11-18 27c-13 13-16 18-17 25q0 5-5 9-3 4-10 5-13 3-18 0-2-2-4-1-4-2-3 7a222 222 0 0 0 73 131c9 6 25 13 25 11l-3-9c-5-17-5-26 1-39q6-12 0-29l-5-16q-1-7-5-9l-3-1-1-24a172 172 0 0 1 9-62l1-4 1-10c0-9 0-10-4-16-6-11-5-11-10-4m-31 1-9 13 2-3zl5-6zm157 3-7-7zm-83-4q1 0 0 0v-1zm3 0q1 0 0 0v-1zm50 0q1 0 0 0v-1zm-7 3a97 97 0 0 0 1 34l3 9c4 9 10 38 11 56l1 15-2 2q-3 3-3 8l-5 16-4 20v28q2 11-5 26l-2 6 2-1c5-1 18-8 23-12 19-14 39-40 54-69 13-27 20-55 17-65q-1-5-4-4l-5 1c-3 4-23 2-26-1l-2-2q-4 0-4-7c-2-7-4-10-18-22s-18-18-22-28l-5-9-4-4zm-65 0a1 1 0 0 0 2 0l-1-1zm93 2-1 2-1 1q-2 4-8 1l-3-1 2 4c3 8 6 12 18 23q19 17 19 20l4 2q4 0 2-1-3-3 3 0l7 1q5-1 7 2l4 3c4 0-7-9-13-11l-14-7 1 1 3 4c-1 1-11-9-11-11q0-3 4 1l3 2-3-4-6-11q-4-12-11-19-6-6-6-2m-59 2q-2 7-5 7l-4 1q-3 1-1 2c2 2 10 1 11 0q3-6 1-11-2-3-2 1m-23 1-1 3q-3-3 0 8 2 13 5 14v-2q0-5 1-1v-13q2 0-1-4l-2-5-1-3zm-42-1q1 0 0 0v-1zm-18 7q-11 12-2 8c5-3 11-12 8-12zm139-1c0 1 4 7 7 9q8 3 2-4-8-7-9-5m-80 1 1 2zq-2-1 0 0m-52 1-7 8q-11 10-2 6c3-2 10-9 10-12q2-4-1-2m127 1c1 3 5 8 6 7l1 1c-1 2 7 7 10 7h1v-1l-5-5-6-5-2-2h-1l-1 1-1-2-1-3zm-150 0q1 0 0 0v-1zm31 1q1 0 0 0v-1zm-32 1q1 0 0 0v-1zm77 1v-2zm101-1q1 0 0 0v-1zm-147 1q1 0 0 0v-1zm67 1q-2 5 2 6l2-1q3-3 0-4-2-3-4-1m-69 1 1-2zm119 2 2 2q2 1 0 0zm-134 4-2 2zl3-3zm13-2q1 0 0 0v-1zm72 0q1 0 0 0v-1zm61 0c1 2 7 5 7 5l-4-3zm-140 7q-5 3-9 10l4-4zm134-2 9 8 8 6-9-8-9-8zm28-1q1 0 0 0v-1zm-186 3-2 3zl1-3zm189 0 2 3-1-2zm-122 0 15 5v-1l-9-2zm21 1q1 0 0 0v-1zm40 1 1-2zm-5 2-7 2-6 1h6l8-2q6-3-1-1m-125 1q1 0 0 0v-1zm66 1c1 3 23 8 40 8 13 0 30-4 27-6l-7 1c-15 5-39 3-58-5q-3 0-2 2m128-1q1 0 0 0v-1zm-105 1 7 1h4l-5-1-7-1q-3 0 1 1m-90 1q1 0 0 0v-1zm189 1 2 2zl-3-2zm-84 0h6q2-1-3-1-7 1-3 1m96 3q2 4 8 5c4 1 14 9 16 13l2 2-3-4-3-4c0-2-9-7-12-8zl-3-4zm-202-2 1-2zm6 3-1 2zl1-2zm61 0-4 20-1 12 4 36v1l-1 1 7-1c7-2 24-3 30-1h3c0-2-17-3-29-2h-2c3-1 22-2 27-1l4 1v-7q0-14-3-13-4-1 0-3 4-1-7-5-7-5 2-1 6 3 2 0l-7-3-5-2 5 1q4 0 10 3l5 3 1-3 2-14 1-10c2 1 2 20 1 25l-1 3 4-2q8-2 14 1 2 1-3 1-7 1 2 2h-16q-2 0-2 2l1 3v-1l-1-2 15 8q2 3-3 0l-6-1-4-2-2-1v10l3 12 10-2h16l9 2q2 1 2-5c0-14-8-57-12-63l-7 2q-18 7-45 0-11-2-8-3c2 0-5-3-8-3q-2 0-3 2m-69 1-6 3q-7 3-11 9-1 3 2-1 4-5 9-7c4-2 10-6 8-6zm77 0q1 0 0 0v-1zm58 0 1-1zm-52 1h2zm104 3 4 4-5-6zm-176-2q1 0 0 0v-1zm76 0h2zm44 0a1 1 0 0 0 2 0l-1-1zm-35 2c6 1 28 1 32-1h-32l-6-1zm-80 0 1-2zm65 3 4 1 14 9-5-3-12-5c0 1 12 9 20 13q8 6 8 3c0-2-12-12-18-15q-12-5-11-3m44 4-5 7q-3 6-2 8l13-14q5-9-5 2-8 8-3 2l5-7q3-5-3 2m81-3q1 0 0 0v-1zm6 2a1 1 0 0 0 2 0l-1-1zm-64 2q1 0 0 0v-1zm45 0q1 0 0 0v-1zm-188 3-3 1h1l3 2q2 3 3 1 1-3-1-5zm189 0q1 0 0 0v-1zm5 0 1 6 2-3q2-2 3-1l2-1c0-1-7-2-8-1m-50 2v-2zm62 2 1 5q1 2 1-1l-1-5q-1-3-1 1m5 0 1 5q3 3 1-4l-2-5zm-223 1-1 5h1zq-1-5-1 0m5 0-1 5h1zq-1-5-1 0m86-2q-3 1 10 8 10 7 14 7c3 0-7-9-14-13q-11-5-10-2m-105 1q1 0 0 0v-1zm23 3q0 4 1 2v-6zm58-3q1 0 0 0v-1zm25 0 2 1-1-1zm118 2q0 2 1 1v-3zm4 0 1 3v-3l-1-3zm-218 1-1 5c1 1 3-4 3-6q-1-3-2 1m237-2q-6 2-1 3 6 2 5-1l-1-3zm-248 3v3l4-1q6-3-1-4-5 0-3 2m172-1q1 0 0 0v-1zm86 5v22c-2 10-9 32-15 44-21 43-51 77-78 86l-6 2c-1 2 8-1 14-5q28-13 54-52c14-22 27-50 31-71 3-10 2-25 0-27q-2-1 0 0m-264 1-1 7c-1 15 11 50 30 82q25 45 55 60c7 4 17 7 18 6l-5-2c-5-1-16-7-23-11-7-5-23-22-31-33-26-36-47-89-42-106q2-5-1-3m250 1q1 0 0 0v-1zm-101 13a1 1 0 0 0 2 0l-1-1zm-3 10 8 3q0-2-4-2zm-58 1a1 1 0 0 0 0-2zm96 11 1 1q1 0 0 0zm-25 1h6l-3-1q-7 0-3 1m-9 1h2q1-1-1-1-3 0-1 1m20 0h3l-1-1zm-25 1a1 1 0 0 0 2 0l-1-1zm32 0h2zm-35 1a1 1 0 0 0 2 0l-1-1zm-25 2h6q2-1-3-1-7 1-3 1m-9 1h3l-1-1zm49 0h8l-4-1q-10 0-4 1m-54 1a1 1 0 0 0 2 0l-1-1zm7 0q-12 2-11 5l6 23 3 15 2 12q2 10-1 5l-3-3-2 5c-5 11-4 19 1 37 6 17 7 24 7 35v11l3-2 5-1q4 1 2-4v-18c0-12 0-14 3-23q5-13 2-22-1-3-1 3l-1 10-1 8c-2 3-2 2-2-11 0-12 0-16 2-21q3-11 0-6c-3 4-10 0-12-7v-4l2 1 3 3q0 4 4 4 2 2 5-1c2-4 4-12 3-16v-1l3-3c2-6 1-30-2-33-1-1-13-2-20-1m22 0q1 0 0 0v-1zm18 0h2zm23 0q1 0 0 0v-1zm-74 1q-1 1 0 0 3 0 1-1zm47 0a1 1 0 0 0 2 0l-1-1zm6 0-7 2-3 1v11l1 18 2 13 5 18c4 11 4 13 4 19-1 7-4 18-6 18v-18l1 5q1 7 1-3c1-8 0-18-3-19-1 0-6 13-7 19q-1 5 2 12c2 6 2 9 2 22l-1 18-3 7v3l2-2 5-2q4 2 3-6 2-11 8-27c4-10 6-18 8-32v-7l1 6 1 5v-6l-1-7q0-3-3 0l-3 3v-1l1-1 1-4q5-6-1-5-6 0-6-9l1-6q2 0 2 7l1 4v2h1l1-1 3-2q3 0 2-14v-12l-3 5q-5 10-12 8-4-2 2-4c3 0 10-6 11-10q1-6 3 1v3l3-6 5-22q0-3-2-3c-3-2-18-2-22-1m32-1 1 1q1 0 0 0zm-41 1a1 1 0 0 0 2 0l-1-1zm-4 2q1 0 0 0v-1zm38 17q1 0 0 0v-1zm-61 7q-3 3-5 2-6-1 0 4l2 2 4-3q7-10-1-5m2 0q1 0 0 0v-1zm-17 3q1 0 0 0v-1zm1 2q1 0 0 0v-1zm69 4q1 0 0 0v-1zm-34 4-5 19c-2 3-2 4 0 12q4 9 4 5l3-9 3-6-1-8-3-13-1-4zm-24 1q1 6 4 4 2-1-1-4l-3-2zm38-2 1 1q1 0 0 0zm-38 10q1 0 0 0v-1zm3 5c0 1 5 3 6 2l-3-2zm41 0 1 1q1 0 0 0zm8 3q1 0 0 0v-1zm5 7a1 1 0 0 0 0-2zm-63 9-1 6q-1 6-1-1t-1-3q-1 8 3 14l2 4v-10q0-16-2-10m60 7q1 0 0 0v-1zm-1 3q1 0 0 0v-1zm-60 4v-2zm25 9c-3 9-3 11-3 24s0 15 2 18l3 4 3-6c4-8 4-24 1-38l-3-10zm-6 12q1 0 0 0v-1zm33 9q1 0 0 0v-1zm-1 2a1 1 0 0 0 0-2zm-2 7v-1q0-1 0 0zm-40 16q-2 1 1 1l6-2 5-1h-5zm28 0q-2 3 2 1l5-1q1-1-2-1zm-25 2-2 3q0 4-5 2-4-3-3 1l1 6 3 9 3 9 1 4-1 1 2 1 5 2q6 3 2 3t-9-5q-4-3-2 0 3 6 9 8c3 1 12-1 12-2l-2-1v-1q3-2 1-10-1-4-7-3-13 2 3-3 1-1-4-1l-5-1 4-2 5-2h-5q-9-1-1-3t-1-2h-4l3-2 4-1-4-1q-6-2 2-3 8-2-2-3h-2l5-1 3-1q-3-3-9-1m17 5 2 8 3 11q2 10 9 13 4 3 1 3l-5-1q-5-3-2 1c2 3 8 5 10 4l3-1 3-2-1-1h-2l1-1q3-1 1-9-1-4-6-3-7 0-3-2l4-1q5 0-3-2l-4-1 3-1 3-1-3-1q-4-1-1-1l2-2-2-1-3-1h3q5-2 0-3t0-3l5-2h-9q-1 3-6-1-2-2-3 1m-11 3h2q1-1-1-1-3 0-1 1m25 1h2q1-1-1-1-3 0-1 1m-43 1 1 5q3 4 2 1l-1-5zm20 2q1 0 0 0v-1zm2 9 1 1v-1l-1-1zm0 5h2zm23 0a1 1 0 0 0 2 0l-1-1zm10 6a1 1 0 0 0 0-2zm1 5q0 3 1 2v-4q-1-1-1 2m-52 2q1 0 0 0v-1zm1 2q1 0 0 0v-1zm29 1q1 0 0 0v-1zm-24 3 5 3v-1zl-3-2zm43 0-1 2 3-2q3-4-2 0m-15 0 3 2q3 1-2-2zm-10 1 1-2zm-3 2a1 1 0 0 0 2 0l-1-1zm20 0h4l-3-1q-4 0-1 1m-26 1h4l-3-1q-4 0-1 1"/></svg>