<svg xmlns="http://www.w3.org/2000/svg" width="512" height="512"><path fill="#fff" fill-rule="evenodd" d="M369 20q-9 7-12 31v6h-11l-11-1q-3-3-14-4c-5-1-12 2-13 4l-52 2h-51l-2-2-7-2c-5-1-13 1-15 3q-1 2-13 2h-11v-4l-5-22-6-8-3-4h-14c-13 0-13 1-16 4-6 5-11 18-11 30v3H91c-10 1-10 1-12 3v6c1 2 1 2 12 2l11 1c1 15 8 32 15 35 5 3 23 3 28 0s10-15 12-28l1-8 9-1c10-1 9-3 9 24 0 19 0 20 3 31l4 20c2 14 4 21 11 29 5 8 5 8 5 15q0 14 5 29c3 9 3 11 4 27v17l-3 7-5 13c-1 4-2 15-5 24s-3 17-3 18l1 10 2 14c3 5 3 30 1 44v24l1 22-1 7-7 8-13 10q-12 6-11 11-1 5 9 6c4 1 16-1 22-4l13-4c12-1 13-3 10-17q-4-21 5-44 5-10 2-29v-11l3-10 4-12 9-23q2-7 3 1l3 5 11 25c2 6 9 22 12 26q2 2 3 14c1 11 1 12 6 22 7 15 8 20 8 38-1 12-1 16-3 20q-8 17 10 17 19-1 21-10l-3-11-2-12-2-10c-2-5-2-9-2-30 1-27 0-29-8-44-5-10-6-16-5-30l-1-16q-2-6 1-7c1-1 1-3-3-17l-12-43c-3-6-3-6-2-17 1-9 2-11 7-26 7-14 9-21 10-30q1-4 7-11 10-13 12-28c2-13 2-15 6-25q7-17 8-31 2-19 5-21l3-5 1-3h10c12 0 11-1 12 10 2 13 8 27 13 30l15 1c14 0 15-1 20-10 3-6 6-20 6-26v-3h11c12 0 13 0 13-7 0-4-1-5-13-5h-11l-1-9c-2-13-7-25-12-28l-14-1c-12 0-13 0-16 3m1 3-6 11c-2 7-2 9-3 22q-1 30 8 41 4 7 9 6l-2-4a93 93 0 0 1-8-48q1-17 7-26l3-5h-2zm12-1q-5 4-9 15c-2 8-2 35 0 44q5 21 14 22h2l-2-4c-7-11-11-37-8-55q3-15 8-21l2-3h-2zm11 0q-8 4-11 26c-3 20 2 45 10 51q3 4 6 2c3-2 8-12 9-22 2-12 3-12-1-12l-4 2c-3 6-9 3-10-5-2-10 6-20 10-11l4 2c4 0 4 0 0-15q-3-20-13-18m-277 4c-8 5-13 31-10 51q6 23 14 26 6 2 1-4c-3-4-6-13-7-18l-2-15q-1-27 9-39 3-4 0-3zm9 1c-12 12-13 54-2 71q6 6 10 6l-3-6c-9-14-10-48-3-66l4-6q3-2-1-2zm10 0c-5 5-10 20-10 34 0 20 8 41 15 41 6 0 12-13 14-27v-7h-3q-3 0-4 3-2 4-5 3-6-1-6-11t6-10q4 0 5 3t4 3h3v-5q-3-21-11-27-3-4-8 0m260 29c-2 5 0 13 2 13q4 0 2-4l-2-4 2-4 1-3q-3-3-5 2m-255 0c-4 6 0 19 4 14v-2c-2-1-3-8-1-9q3 0 1-2-1-3-4-1m172 0-3 5q-1 4 3 6l4 3q3-2 1 2l-3 8-6 15q-7 16-6 18l1-1 1-1v5l-5 23v-4l1-8v-5l-4 3q-7 8-12 27-4 24-3 8v-9l-5 3-8 6q-3 4-10 6c-16 5-21 10-22 23q-1 8 3 9 2 3 10 2c14 0 16-2 26-24l2-5-1 5q-2 19-15 25-3 2-13 2c-9 0-9-1-12-3q-2-4-4-1-2 4-14 4-7-2-6 1l-3-11q0-3 1 0 3 8 12 7 11 0 11-11l3-11 1-5-8-5q-9-4-5-4l3-1c0-3-11-12-13-12l-1 2-2 11-3 9-2-5q-5-11-1-5l3 3 2-6c2-11-2-26-10-33l-4-4-1 5 1 10q1 11-2 0v-18l-2 2-2 1 3-11q1 6 5 9 2 3 2-6l-4-15-5-17-3-9-2-2q-2-1 2-1 9 1 12-6v-5q2-2-1-3-4-1-3 1 1 4-4 5l-5 2-4 2c-1-2-6 1-4 4v42l5 8c5 9 5 9 3 9q-2-1-2 3c0 4 0 7 3 20q2 9 8 17 5 6 5 1l1-3 1 13c-1 14 0 21 3 32q1 6 2 2 1-3 1 2l2 8q5 5 5 11l-2-2-2-4-1 13c0 15 1 17 8 20 6 2 25 3 33 1q12-2 19-9 3-3 3-14c0-5 2-10 9-28 5-12 9-26 9-31v-8c3 6 3 6 9-4q8-10 9-22l2-12q3-8 0-7l-4 1-2 2 5-9q3-3 1 0v4q3 1 4-3l3-9 5-24 3-16-1-3v-1c2 1 6-4 5-5l-5-1-5-1-7-3q-3 0-1-1l3-2 1-1q-1-3-5-1m7 1v3q2 1 2-3v-2zm4 0c-1 2 0 6 1 4l1-6zm-132 0-6 1q-2-1-2 2c1 2 0 2-19 2-18 0-20 0-20 2l19 1c18-1 20-1 25-3l5-4q0-3-2-1m136 0c-1 5 1 6 18 5q25-1-3-2-16 0-13-1l2-2q-1-2-4 0m72 2v3q0 2 16 2h15v-6h-15zm33 2 1 2 1-2-1-2zm-205 0c-20 0-24 1-25 2l18 1 86-2c0-2-4-2-28-2zM84 62q-2 0-2 2 0 3 5 3l10-1q6 0 5-2 1-3-8-3zm129 5q-9 0-10 2l-6 4-3 2v7q1 8 5 16 3 8 4 18t4 13l5 11c2 7 2 7 8 10l8 8q7 10 1-10c-4-13-1-33 5-38 7-6 19-6 27 0q8 3 7 18c0 9 0 10-2 13q-2 4-2 9v6q2 1 6-2l8-5q4-2 5-8 4-11 10-18 4-4 5-10c1-7 3-11 8-22l5-13c1-5 1-5-2-8l-2-4h-43zm104 10-1 5 3-8zm-135 3q0 3 1 2v-5zm4-3v3q1 3 1-1 0-5-1-2m118 32a1 1 0 0 0 0-2zm-66 2q-3 1-5 6c-3 5-3 7-3 16q-1 25 12 23 13-3 16-12l3-3q4-1 5-6l-2-3q-4-1 0-3l1-5q-1-14-18-15zm-55 14 1 2 1-2-1-2-1-1zm75 26c-2 4-11 7-17 7q-7 0-6 2l-1 4v3q3 3 2-2l1-3 2 5q-1 10 9-4l3-3-1 3-2 3 15-5-1-2-2-6q0-6-2-2m27 17q-10 13 0 4 5-5 5-8v-2zm-11 33q0 5-7 5l-2 1q1 2 6 1h3q2 3-3 6-5 2-1 3 7 1 6-9l-1-8q-1-1-1 1m-66 6 2 2 2 7q3 11 3 4c0-6 9-13 15-11q3-1 2 5l-1 6q0 2-3 2-8 1-9 3c0 2 7 0 11-2q3-2 6 1c2 1 15 3 14 1l-8-2-7-2-1-3q0-10 4-9 9 1 13 6 5 8 5 20v6l3-8 3-6 5-6q2-3-3 1l-5 4-2-5q-3-9-13-14h-8q-3 3-6 0-3-2-12 4-5 4-5-2 0-2-1-1l-2-1-1-1zm65 14-1 6c1 0 4-5 3-6zm-63 7q1 0 0 0v-1zm23 2-1 7v4h-6q-8 0-2 2h6q4-3 6 0h12q3-2-5-2l-8-1-1-6zm25 10c-3 3-6 13-5 14l3-6 4-8q2-5-2 0m-26 9 1 3q1 2 2-1v-2zm36 11h1q5-2 2-2zm4 2c-4 2-15 5-25 6q-20 3-32-4-6-4-5 3l-1 1-5 12-3 13-4 17-2 9 2 1a67 67 0 0 0 36 6q6 0 6-4v-11l-8 3-9 4 7-5 6-4-9-4-10-4q-2-1 1-1l30 9q8 4 0 2-6-2-3 3l3 8q1 6 6 6c6 0 18-1 27-4l8-3-1-3v-3l2 2h2l-12-43-2-7-1-4q-1-3-4-1m-57 9 5 3c5 2 7 2 17 2a58 58 0 0 0 26-5l-11 2a82 82 0 0 1-37-2m36 10-20 2h-13l1 1 22 10-13 1h-13l6 2q12 3 25-1c11-3 16-5 6-3-4 1-5 0-12-3l-7-3 4-1c13-2 17-3 22-6q7-2 4-2zm-55 51c1 8 3 18 5 18l2-3 1-2v3q5 15 11 14l3-1-3 2q-1 3-6-1l-4-6-2-3-2 5q-2 10 2 15v6q0 5-1 3-2-1-3 6v32c2 22 1 23-7 32q-7 8-14 11l-9 6q-2 2 1 4c2 2 3 2 11 2q9-1 13-4l14-4c10-1 11-2 9-11-4-15-2-34 3-45 3-6 3-7 3-17l-1-14q0-4-4 3-8 10-5 4l4-8q5-7 9-22l5-13 4-12 1-2-13-1c-12 0-15 0-25-5-2 0-2 0-2 8m83-4-17 3-9 1 2 5 3 5 1-1v-3q1-3 1 0v3l1 7q2 11 8 17 4 4 1 3l-2-1 9 16q7 7 7 12l-3-4-4-4 1 17 5 12q8 16 8 27 0 23-3 33l-2 9q1 4 6 3 17 1 20-5 2-2-2-12l-3-13-1-9c-2-5-2-11-2-29 0-25 0-29-7-42-4-7-4-10-7-19q0-4-1-2-1 4-6-2l-5-4 4 2 5 2c3 0 4-18 2-27 0-4 0-4-10 0m0 36q-6 3-5 6 1 4 1 0 0-3 2-2l5-2q5-1 5 3l1 4q0 5-6 6-3 0-1 1l5 1q6-4 2-16 0-3-9-1m-68 80-1 10z"/></svg>